<svg width="21" height="22" viewBox="0 0 21 22" fill="none" xmlns="http://www.w3.org/2000/svg">
    <path fill-rule="evenodd" clip-rule="evenodd"
        d="M0.103481 19.6801C1.74609 15.8898 5.88046 6.89788 8.72993 0.745001C9.18747 -0.242962 10.5857 -0.249224 11.0582 0.731703L20.0882 19.4811C20.5006 20.3373 19.8767 21.3303 18.9263 21.3303H17.4829C17.2062 21.3303 17.0129 21.0447 17.0129 20.768C17.0129 19.914 16.3206 19.2217 15.4666 19.2217H5.10954C4.25551 19.2217 3.56318 19.914 3.56318 20.768C3.56318 21.0447 3.36985 21.3303 3.09317 21.3303H1.21222C0.33251 21.3303 -0.246327 20.4872 0.103481 19.6801Z"
        fill="white" />
    <path d="M20 15L13.44 1.23186" stroke="white" stroke-linecap="round" />
</svg>
    